<svg xmlns="http://www.w3.org/2000/svg" version="1.1" xmlns:xlink="http://www.w3.org/1999/xlink" xmlns:svgjs="http://svgjs.dev/svgjs" width="2000" height="1500" viewBox="0 0 2000 1500"><rect width="2000" height="1500" fill="#ffffff"></rect><g transform="matrix(0.75,0,0,0.75,249.090909090909,430.77793285625205)"><svg viewBox="0 0 396 169" data-background-color="#ffffff" preserveAspectRatio="xMidYMid meet" height="853" width="2000" xmlns="http://www.w3.org/2000/svg" xmlns:xlink="http://www.w3.org/1999/xlink"><g id="tight-bounds" transform="matrix(1,0,0,1,0.2400000000000091,-0.1724824583143345)"><svg viewBox="0 0 395.52 169.34496491662867" height="169.34496491662867" width="395.52"><g><svg viewBox="0 0 570.0807656879176 244.08451472761232" height="169.34496491662867" width="395.52"><g transform="matrix(1,0,0,1,0,33.73382222357016)"><svg viewBox="0 0 395.52 176.616870280472" height="176.616870280472" width="395.52"><g id="textblocktransform"><svg viewBox="0 0 395.52 176.616870280472" height="176.616870280472" width="395.52" id="textblock"><g><svg viewBox="0 0 395.52 123.86153195090985" height="123.86153195090985" width="395.52"><g transform="matrix(1,0,0,1,0,0)"><svg width="395.52" viewBox="0.6 -36.5 118.14 37" height="123.86153195090985" data-palette-color="#2b89a5"><path d="M0.6 0L15.45-35.5 18.4-35.5 33.15 0 29.45 0 24.85-11.1 8.9-11.1 4.35 0 0.6 0ZM9.65-13.85L24.05-13.85 16.9-31.4 9.65-13.85ZM50.55-26.15L50.55-23.05Q47.15-22.95 44.57-21.15 42-19.35 40.95-16.2L40.95-16.2 40.95 0 37.55 0 37.55-26.05 40.75-26.05 40.75-19.8Q42.1-22.55 44.32-24.25 46.55-25.95 49.05-26.15L49.05-26.15Q49.55-26.2 49.92-26.2 50.3-26.2 50.55-26.15L50.55-26.15ZM67.85 0.5L67.85 0.5Q64.8 0.5 62.2-1.07 59.6-2.65 58.15-5.05L58.15-5.05 58.15 0 55.1 0 55.1-36.5 58.5-36.5 58.5-20.6Q60.25-23.25 62.7-24.88 65.15-26.5 68.4-26.5L68.4-26.5Q71.15-26.5 73.32-25.35 75.5-24.2 77.05-22.28 78.6-20.35 79.4-17.93 80.2-15.5 80.2-12.95L80.2-12.95Q80.2-10.2 79.27-7.8 78.35-5.4 76.65-3.53 74.95-1.65 72.72-0.58 70.5 0.5 67.85 0.5ZM67.05-2.5L67.05-2.5Q69.15-2.5 70.95-3.35 72.75-4.2 74.05-5.7 75.35-7.2 76.05-9.08 76.75-10.95 76.75-12.95L76.75-12.95Q76.75-15.7 75.57-18.13 74.4-20.55 72.32-22.03 70.25-23.5 67.45-23.5L67.45-23.5Q65.45-23.5 63.72-22.6 62-21.7 60.67-20.23 59.35-18.75 58.5-17L58.5-17 58.5-8.9Q58.7-7.55 59.55-6.38 60.4-5.2 61.67-4.35 62.95-3.5 64.35-3 65.75-2.5 67.05-2.5ZM89.34 0L85.94 0 85.94-26.05 89.34-26.05 89.34 0ZM89.34-31.5L85.94-31.5 85.94-36.5 89.34-36.5 89.34-31.5ZM118.74-15.25L118.74 0 115.34 0 115.34-14.55Q115.34-19.15 113.99-21.28 112.64-23.4 109.74-23.4L109.74-23.4Q107.74-23.4 105.79-22.43 103.84-21.45 102.37-19.78 100.89-18.1 100.24-15.95L100.24-15.95 100.24 0 96.84 0 96.84-26.05 99.94-26.05 99.94-20.15Q100.99-22.05 102.69-23.48 104.39-24.9 106.54-25.7 108.69-26.5 110.99-26.5L110.99-26.5Q113.14-26.5 114.64-25.7 116.14-24.9 117.04-23.43 117.94-21.95 118.34-19.88 118.74-17.8 118.74-15.25L118.74-15.25Z" opacity="1" transform="matrix(1,0,0,1,0,0)" fill="#2b89a5" class="wordmark-text-0" data-fill-palette-color="primary" id="text-0"></path></svg></g></svg></g><g transform="matrix(1,0,0,1,163.310208,153.10226696775285)"><svg viewBox="0 0 232.209792 23.514603312719153" height="23.514603312719153" width="232.209792"><g transform="matrix(1,0,0,1,0,0)"><svg width="232.209792" viewBox="0.6 -36.5 470.5 47.65" height="23.514603312719153" data-palette-color="#2b89a5"><path d="M0.6 0L15.45-35.5 18.4-35.5 33.15 0 29.45 0 24.85-11.1 8.9-11.1 4.35 0 0.6 0ZM9.65-13.85L24.05-13.85 16.9-31.4 9.65-13.85ZM50.55-26.15L50.55-23.05Q47.15-22.95 44.57-21.15 42-19.35 40.95-16.2L40.95-16.2 40.95 0 37.55 0 37.55-26.05 40.75-26.05 40.75-19.8Q42.1-22.55 44.32-24.25 46.55-25.95 49.05-26.15L49.05-26.15Q49.55-26.2 49.92-26.2 50.3-26.2 50.55-26.15L50.55-26.15ZM67.85 0.5L67.85 0.5Q64.8 0.5 62.2-1.07 59.6-2.65 58.15-5.05L58.15-5.05 58.15 0 55.1 0 55.1-36.5 58.5-36.5 58.5-20.6Q60.25-23.25 62.7-24.88 65.15-26.5 68.4-26.5L68.4-26.5Q71.15-26.5 73.32-25.35 75.5-24.2 77.05-22.28 78.6-20.35 79.4-17.93 80.2-15.5 80.2-12.95L80.2-12.95Q80.2-10.2 79.27-7.8 78.35-5.4 76.65-3.53 74.95-1.65 72.72-0.58 70.5 0.5 67.85 0.5ZM67.05-2.5L67.05-2.5Q69.15-2.5 70.95-3.35 72.75-4.2 74.05-5.7 75.35-7.2 76.05-9.08 76.75-10.95 76.75-12.95L76.75-12.95Q76.75-15.7 75.57-18.13 74.4-20.55 72.32-22.03 70.25-23.5 67.45-23.5L67.45-23.5Q65.45-23.5 63.72-22.6 62-21.7 60.67-20.23 59.35-18.75 58.5-17L58.5-17 58.5-8.9Q58.7-7.55 59.55-6.38 60.4-5.2 61.67-4.35 62.95-3.5 64.35-3 65.75-2.5 67.05-2.5ZM97.04 0.5L97.04 0.5Q94.24 0.5 91.87-0.58 89.49-1.65 87.77-3.53 86.04-5.4 85.09-7.83 84.14-10.25 84.14-12.95L84.14-12.95Q84.14-15.75 85.09-18.18 86.04-20.6 87.79-22.48 89.54-24.35 91.92-25.43 94.29-26.5 97.09-26.5L97.09-26.5Q99.89-26.5 102.24-25.43 104.59-24.35 106.34-22.48 108.09-20.6 109.04-18.18 109.99-15.75 109.99-12.95L109.99-12.95Q109.99-10.25 109.04-7.83 108.09-5.4 106.37-3.53 104.64-1.65 102.27-0.58 99.89 0.5 97.04 0.5ZM87.59-12.9L87.59-12.9Q87.59-10 88.87-7.63 90.14-5.25 92.29-3.88 94.44-2.5 97.04-2.5L97.04-2.5Q99.64-2.5 101.79-3.9 103.94-5.3 105.24-7.73 106.54-10.15 106.54-13L106.54-13Q106.54-15.9 105.24-18.3 103.94-20.7 101.79-22.1 99.64-23.5 97.04-23.5L97.04-23.5Q94.44-23.5 92.32-22.05 90.19-20.6 88.89-18.23 87.59-15.85 87.59-12.9ZM115.84-4.75L115.84-36.5 119.24-36.5 119.24-5.9Q119.24-3.95 119.94-3.35 120.64-2.75 121.64-2.75L121.64-2.75Q122.54-2.75 123.44-2.95 124.34-3.15 124.99-3.35L124.99-3.35 125.59-0.6Q124.64-0.2 123.27 0.05 121.89 0.3 120.89 0.3L120.89 0.3Q118.59 0.3 117.22-1.05 115.84-2.4 115.84-4.75L115.84-4.75ZM127.19-7.5L127.19-7.5Q127.19-9.95 128.59-11.73 129.99-13.5 132.46-14.48 134.94-15.45 138.19-15.45L138.19-15.45Q140.09-15.45 142.14-15.15 144.19-14.85 145.79-14.25L145.79-14.25 145.79-16.45Q145.79-19.75 143.84-21.7 141.89-23.65 138.44-23.65L138.44-23.65Q136.34-23.65 134.31-22.88 132.29-22.1 130.09-20.6L130.09-20.6 128.79-23Q131.34-24.75 133.79-25.63 136.24-26.5 138.79-26.5L138.79-26.5Q143.59-26.5 146.39-23.75 149.19-21 149.19-16.15L149.19-16.15 149.19-4.1Q149.19-3.4 149.49-3.08 149.79-2.75 150.44-2.7L150.44-2.7 150.44 0Q149.89 0.05 149.49 0.1 149.09 0.15 148.89 0.1L148.89 0.1Q147.64 0.05 146.99-0.7 146.34-1.45 146.29-2.3L146.29-2.3 146.24-4.2Q144.49-1.95 141.69-0.73 138.89 0.5 135.99 0.5L135.99 0.5Q133.49 0.5 131.46-0.58 129.44-1.65 128.31-3.48 127.19-5.3 127.19-7.5ZM144.64-5.5L144.64-5.5Q145.19-6.2 145.49-6.85 145.79-7.5 145.79-8L145.79-8 145.79-11.8Q144.09-12.45 142.26-12.8 140.44-13.15 138.59-13.15L138.59-13.15Q134.94-13.15 132.69-11.7 130.44-10.25 130.44-7.75L130.44-7.75Q130.44-6.3 131.19-5.03 131.94-3.75 133.39-2.93 134.84-2.1 136.79-2.1L136.79-2.1Q139.24-2.1 141.36-3.05 143.49-4 144.64-5.5ZM154.79-12.95L154.79-12.95Q154.79-16.65 156.31-19.73 157.84-22.8 160.54-24.65 163.24-26.5 166.69-26.5L166.69-26.5Q169.94-26.5 172.51-24.78 175.09-23.05 176.54-20.6L176.54-20.6 176.54-36.5 179.94-36.5 179.94-4.1Q179.94-3.4 180.24-3.08 180.54-2.75 181.14-2.7L181.14-2.7 181.14 0Q180.14 0.15 179.59 0.1L179.59 0.1Q178.54 0.05 177.74-0.75 176.94-1.55 176.94-2.5L176.94-2.5 176.94-5.05Q175.39-2.5 172.74-1 170.09 0.5 167.24 0.5L167.24 0.5Q164.54 0.5 162.26-0.6 159.99-1.7 158.31-3.6 156.64-5.5 155.71-7.93 154.79-10.35 154.79-12.95ZM176.54-8.95L176.54-8.95 176.54-17Q175.89-18.8 174.44-20.28 172.99-21.75 171.16-22.63 169.34-23.5 167.54-23.5L167.54-23.5Q165.44-23.5 163.74-22.63 162.04-21.75 160.81-20.25 159.59-18.75 158.94-16.85 158.29-14.95 158.29-12.95L158.29-12.95Q158.29-10.85 159.01-8.95 159.74-7.05 161.09-5.58 162.44-4.1 164.19-3.3 165.94-2.5 167.99-2.5L167.99-2.5Q169.29-2.5 170.69-3 172.09-3.5 173.36-4.38 174.64-5.25 175.49-6.45 176.34-7.65 176.54-8.95ZM198.73 0.5L198.73 0.5Q195.93 0.5 193.56-0.58 191.18-1.65 189.46-3.53 187.73-5.4 186.78-7.83 185.83-10.25 185.83-12.95L185.83-12.95Q185.83-15.75 186.78-18.18 187.73-20.6 189.48-22.48 191.23-24.35 193.61-25.43 195.98-26.5 198.78-26.5L198.78-26.5Q201.58-26.5 203.93-25.43 206.28-24.35 208.03-22.48 209.78-20.6 210.73-18.18 211.68-15.75 211.68-12.95L211.68-12.95Q211.68-10.25 210.73-7.83 209.78-5.4 208.06-3.53 206.33-1.65 203.96-0.58 201.58 0.5 198.73 0.5ZM189.28-12.9L189.28-12.9Q189.28-10 190.56-7.63 191.83-5.25 193.98-3.88 196.13-2.5 198.73-2.5L198.73-2.5Q201.33-2.5 203.48-3.9 205.63-5.3 206.93-7.73 208.23-10.15 208.23-13L208.23-13Q208.23-15.9 206.93-18.3 205.63-20.7 203.48-22.1 201.33-23.5 198.73-23.5L198.73-23.5Q196.13-23.5 194.01-22.05 191.88-20.6 190.58-18.23 189.28-15.85 189.28-12.9ZM234.33 0L230.83 0 230.83-35.5 234.33-35.5 234.33 0ZM264.43-15.25L264.43 0 261.03 0 261.03-14.55Q261.03-19.15 259.68-21.28 258.33-23.4 255.43-23.4L255.43-23.4Q253.43-23.4 251.48-22.43 249.53-21.45 248.05-19.78 246.58-18.1 245.93-15.95L245.93-15.95 245.93 0 242.53 0 242.53-26.05 245.63-26.05 245.63-20.15Q246.68-22.05 248.38-23.48 250.08-24.9 252.23-25.7 254.38-26.5 256.68-26.5L256.68-26.5Q258.83-26.5 260.33-25.7 261.83-24.9 262.73-23.43 263.63-21.95 264.03-19.88 264.43-17.8 264.43-15.25L264.43-15.25ZM283.02-4L283.92-1.25Q283.52-1.1 282.67-0.7 281.82-0.3 280.62 0 279.42 0.3 278.02 0.3L278.02 0.3Q276.57 0.3 275.3-0.25 274.02-0.8 273.27-1.93 272.52-3.05 272.52-4.7L272.52-4.7 272.52-23.35 268.92-23.35 268.92-26.05 272.52-26.05 272.52-34.85 275.92-34.85 275.92-26.05 281.92-26.05 281.92-23.35 275.92-23.35 275.92-5.65Q276.02-4.25 276.95-3.55 277.87-2.85 279.07-2.85L279.07-2.85Q280.47-2.85 281.62-3.33 282.77-3.8 283.02-4L283.02-4ZM298.97 0.5L298.97 0.5Q296.17 0.5 293.77-0.58 291.37-1.65 289.62-3.53 287.87-5.4 286.9-7.85 285.92-10.3 285.92-13.1L285.92-13.1Q285.92-16.75 287.6-19.8 289.27-22.85 292.22-24.68 295.17-26.5 298.92-26.5L298.92-26.5Q302.77-26.5 305.65-24.65 308.52-22.8 310.17-19.78 311.82-16.75 311.82-13.15L311.82-13.15Q311.82-12.75 311.82-12.38 311.82-12 311.77-11.8L311.77-11.8 289.47-11.8Q289.72-9 291.05-6.83 292.37-4.65 294.5-3.38 296.62-2.1 299.12-2.1L299.12-2.1Q301.67-2.1 303.95-3.4 306.22-4.7 307.12-6.8L307.12-6.8 310.07-6Q309.27-4.15 307.62-2.65 305.97-1.15 303.75-0.33 301.52 0.5 298.97 0.5ZM289.37-14.25L289.37-14.25 308.62-14.25Q308.42-17.1 307.1-19.25 305.77-21.4 303.65-22.63 301.52-23.85 298.97-23.85L298.97-23.85Q296.42-23.85 294.32-22.63 292.22-21.4 290.9-19.23 289.57-17.05 289.37-14.25ZM317.22-4.75L317.22-36.5 320.62-36.5 320.62-5.9Q320.62-3.95 321.32-3.35 322.02-2.75 323.02-2.75L323.02-2.75Q323.92-2.75 324.82-2.95 325.72-3.15 326.37-3.35L326.37-3.35 326.97-0.6Q326.02-0.2 324.64 0.05 323.27 0.3 322.27 0.3L322.27 0.3Q319.97 0.3 318.59-1.05 317.22-2.4 317.22-4.75L317.22-4.75ZM334.07 0L330.67 0 330.67-26.05 334.07-26.05 334.07 0ZM334.07-31.5L330.67-31.5 330.67-36.5 334.07-36.5 334.07-31.5ZM352.01 0.35L352.01 0.35Q349.36 0.35 347.11-0.75 344.86-1.85 343.24-3.73 341.61-5.6 340.71-8 339.81-10.4 339.81-12.95L339.81-12.95Q339.81-15.7 340.69-18.13 341.56-20.55 343.19-22.45 344.81-24.35 347.01-25.43 349.21-26.5 351.91-26.5L351.91-26.5Q355.26-26.5 357.74-24.8 360.21-23.1 361.91-20.6L361.91-20.6 361.91-26.05 364.96-26.05 364.96 0.1Q364.96 3.7 363.24 6.18 361.51 8.65 358.59 9.9 355.66 11.15 352.21 11.15L352.21 11.15Q347.76 11.15 345.01 9.55 342.26 7.95 340.51 5.25L340.51 5.25 342.61 3.6Q344.16 6.05 346.74 7.25 349.31 8.45 352.21 8.45L352.21 8.45Q354.76 8.45 356.89 7.53 359.01 6.6 360.29 4.75 361.56 2.9 361.56 0.1L361.56 0.1 361.56-5.05Q360.06-2.6 357.46-1.13 354.86 0.35 352.01 0.35ZM352.96-2.5L352.96-2.5Q354.51-2.5 355.94-3.05 357.36-3.6 358.56-4.53 359.76-5.45 360.56-6.6 361.36-7.75 361.56-8.95L361.56-8.95 361.56-17Q360.81-18.9 359.41-20.38 358.01-21.85 356.24-22.68 354.46-23.5 352.56-23.5L352.56-23.5Q350.36-23.5 348.64-22.58 346.91-21.65 345.74-20.13 344.56-18.6 343.91-16.7 343.26-14.8 343.26-12.9L343.26-12.9Q343.26-10.8 344.01-8.93 344.76-7.05 346.09-5.58 347.41-4.1 349.19-3.3 350.96-2.5 352.96-2.5ZM383.71 0.5L383.71 0.5Q380.91 0.5 378.51-0.58 376.11-1.65 374.36-3.53 372.61-5.4 371.64-7.85 370.66-10.3 370.66-13.1L370.66-13.1Q370.66-16.75 372.34-19.8 374.01-22.85 376.96-24.68 379.91-26.5 383.66-26.5L383.66-26.5Q387.51-26.5 390.39-24.65 393.26-22.8 394.91-19.78 396.56-16.75 396.56-13.15L396.56-13.15Q396.56-12.75 396.56-12.38 396.56-12 396.51-11.8L396.51-11.8 374.21-11.8Q374.46-9 375.79-6.83 377.11-4.65 379.24-3.38 381.36-2.1 383.86-2.1L383.86-2.1Q386.41-2.1 388.69-3.4 390.96-4.7 391.86-6.8L391.86-6.8 394.81-6Q394.01-4.15 392.36-2.65 390.71-1.15 388.49-0.33 386.26 0.5 383.71 0.5ZM374.11-14.25L374.11-14.25 393.36-14.25Q393.16-17.1 391.84-19.25 390.51-21.4 388.39-22.63 386.26-23.85 383.71-23.85L383.71-23.85Q381.16-23.85 379.06-22.63 376.96-21.4 375.64-19.23 374.31-17.05 374.11-14.25ZM423.71-15.25L423.71 0 420.31 0 420.31-14.55Q420.31-19.15 418.96-21.28 417.61-23.4 414.71-23.4L414.71-23.4Q412.71-23.4 410.76-22.43 408.81-21.45 407.33-19.78 405.86-18.1 405.21-15.95L405.21-15.95 405.21 0 401.81 0 401.81-26.05 404.91-26.05 404.91-20.15Q405.96-22.05 407.66-23.48 409.36-24.9 411.51-25.7 413.66-26.5 415.96-26.5L415.96-26.5Q418.11-26.5 419.61-25.7 421.11-24.9 422.01-23.43 422.91-21.95 423.31-19.88 423.71-17.8 423.71-15.25L423.71-15.25ZM442.31-4L443.21-1.25Q442.81-1.1 441.96-0.7 441.11-0.3 439.91 0 438.71 0.3 437.31 0.3L437.31 0.3Q435.86 0.3 434.58-0.25 433.31-0.8 432.56-1.93 431.81-3.05 431.81-4.7L431.81-4.7 431.81-23.35 428.21-23.35 428.21-26.05 431.81-26.05 431.81-34.85 435.21-34.85 435.21-26.05 441.21-26.05 441.21-23.35 435.21-23.35 435.21-5.65Q435.31-4.25 436.23-3.55 437.16-2.85 438.36-2.85L438.36-2.85Q439.76-2.85 440.91-3.33 442.06-3.8 442.31-4L442.31-4ZM458.25 0.5L458.25 0.5Q455.45 0.5 453.05-0.58 450.65-1.65 448.9-3.53 447.15-5.4 446.18-7.85 445.2-10.3 445.2-13.1L445.2-13.1Q445.2-16.75 446.88-19.8 448.55-22.85 451.5-24.68 454.45-26.5 458.2-26.5L458.2-26.5Q462.05-26.5 464.93-24.65 467.8-22.8 469.45-19.78 471.1-16.75 471.1-13.15L471.1-13.15Q471.1-12.75 471.1-12.38 471.1-12 471.05-11.8L471.05-11.8 448.75-11.8Q449-9 450.33-6.83 451.65-4.65 453.78-3.38 455.9-2.1 458.4-2.1L458.4-2.1Q460.95-2.1 463.23-3.4 465.5-4.7 466.4-6.8L466.4-6.8 469.35-6Q468.55-4.15 466.9-2.65 465.25-1.15 463.03-0.33 460.8 0.5 458.25 0.5ZM448.65-14.25L448.65-14.25 467.9-14.25Q467.7-17.1 466.38-19.25 465.05-21.4 462.93-22.63 460.8-23.85 458.25-23.85L458.25-23.85Q455.7-23.85 453.6-22.63 451.5-21.4 450.18-19.23 448.85-17.05 448.65-14.25Z" opacity="1" transform="matrix(1,0,0,1,0,0)" fill="#2b89a5" class="slogan-text-1" data-fill-palette-color="secondary" id="text-1"></path></svg></g></svg></g></svg></g></svg></g><g transform="matrix(1,0,0,1,424.760735016843,0)"><svg viewBox="0 0 145.32003067107462 244.08451472761232" height="244.08451472761232" width="145.32003067107462"><g><svg xmlns="http://www.w3.org/2000/svg" xmlns:xlink="http://www.w3.org/1999/xlink" version="1.1" x="0" y="0" viewBox="22.39881811520241 8.681 49.17318188479759 82.59296521296751" enable-background="new 0 0 100 100" xml:space="preserve" height="244.08451472761232" width="145.32003067107462" class="icon-icon-0" data-fill-palette-color="accent" id="icon-0"><path d="M71.572 8.681c-9.434 18.44-2.953 5.056-31.36 35.339-17.038 18.163-10.77 33.007-6.875 39.164-1.17 1.175-6.203 6.046-9.3 6.281l-1.622 1.307c0 0-0.325 0.654 1.938 0.469 4.417-0.362 8.56-4.841 10.43-7.009C78.452 62.141 52.948 60.925 71.572 8.681zM57.168 39.308l0.335-0.607C57.615 38.539 57.518 38.793 57.168 39.308zM53.917 44.843l-18.54 36.103C36.608 74.753 48.303 54.342 53.917 44.843z" fill="#369d95" data-fill-palette-color="accent"></path></svg></g></svg></g></svg></g><defs></defs></svg><rect width="395.52" height="169.34496491662867" fill="none" stroke="none" visibility="hidden"></rect></g></svg></g></svg>